<?xml version="1.0" standalone="no"?>
<!DOCTYPE svg PUBLIC "-//W3C//DTD SVG 20010904//EN"
 "http://www.w3.org/TR/2001/REC-SVG-20010904/DTD/svg10.dtd">
<svg version="1.0" xmlns="http://www.w3.org/2000/svg"
 width="512.000000pt" height="512.000000pt" viewBox="0 0 512.000000 512.000000"
 preserveAspectRatio="xMidYMid meet">

<g transform="translate(0.000000,512.000000) scale(0.100000,-0.100000)"
fill="#000000" stroke="none">
<path d="M0 2560 l0 -2560 2560 0 2560 0 0 2560 0 2560 -2560 0 -2560 0 0
-2560z m2820 2476 c0 -11 -19 -15 -25 -6 -3 5 1 10 9 10 9 0 16 -2 16 -4z
m285 -6 c3 -5 1 -10 -4 -10 -6 0 -11 5 -11 10 0 6 2 10 4 10 3 0 8 -4 11 -10z
m-1311 -15 c3 -8 1 -15 -4 -15 -6 0 -10 7 -10 15 0 8 2 15 4 15 2 0 6 -7 10
-15z m501 -4 c3 -6 -4 -9 -15 -8 -11 1 -20 5 -20 9 0 11 28 10 35 -1z m155 -7
c0 -8 -4 -12 -10 -9 -5 3 -10 10 -10 16 0 5 5 9 10 9 6 0 10 -7 10 -16z m850
1 c10 -13 9 -15 -9 -15 -12 0 -21 6 -21 15 0 8 4 15 9 15 5 0 14 -7 21 -15z
m-1642 -2227 l-3 -43 -68 -3 -68 -3 3 -32 c3 -32 3 -32 66 -35 l63 -3 -3 -42
-3 -42 -62 -3 -63 -3 0 -74 0 -75 -50 0 -50 0 0 200 0 200 121 0 120 0 -3 -42z
m270 0 l-3 -43 -65 -5 c-64 -5 -65 -5 -65 -35 l0 -30 68 -3 68 -3 -3 -42 -3
-42 -65 -5 c-64 -5 -65 -5 -65 -35 l0 -30 68 -3 67 -3 0 -39 0 -40 -115 0
-115 0 0 200 0 200 116 0 115 0 -3 -42z m152 -118 l0 -160 65 0 65 0 0 -39 c0
-36 -2 -39 -32 -42 -18 -2 -70 -3 -115 -1 l-83 4 0 199 0 199 50 0 50 0 0
-160z m270 -40 l0 -200 -50 0 -50 0 0 200 0 200 50 0 50 0 0 -200z m179 155
c18 -25 35 -45 39 -45 4 0 21 20 37 45 30 44 31 45 88 45 31 0 57 -4 57 -8 0
-5 -27 -46 -60 -92 -59 -84 -59 -84 -42 -110 46 -71 128 -180 135 -180 4 0 7
88 7 195 l0 195 114 0 c125 0 131 -3 119 -60 -5 -30 -6 -30 -69 -30 l-64 0 0
-35 0 -35 66 0 65 0 -3 -42 -3 -43 -62 -3 -63 -3 0 -34 0 -35 65 0 65 0 0 -40
0 -40 -183 0 -183 0 -43 61 c-24 34 -46 57 -50 52 -4 -4 -24 -32 -45 -60 l-38
-53 -59 0 c-32 0 -59 2 -59 4 0 3 32 49 70 104 39 54 70 102 70 106 0 4 -25
42 -55 85 -30 43 -55 84 -55 90 0 7 21 11 53 11 52 0 55 -1 86 -45z m712 -67
l74 -113 3 113 3 112 195 0 195 0 -3 -42 c-3 -42 -4 -43 -43 -46 -22 -2 -43
-8 -46 -14 -3 -5 -5 -67 -3 -138 3 -70 1 -135 -2 -144 -4 -11 -19 -16 -50 -16
l-43 0 -3 153 -3 152 -47 3 -48 3 0 -155 0 -156 -52 0 -53 0 -72 113 -72 112
-1 -112 0 -113 -50 0 -50 0 0 200 0 200 49 0 48 0 74 -112z m-1378 -618 c-16
-6 -23 -18 -24 -37 -2 -25 -2 -25 -6 -5 -5 27 12 52 36 51 11 0 9 -3 -6 -9z
m262 -37 c0 -46 -5 -52 -25 -28 -10 12 -9 16 4 21 9 3 16 15 16 26 0 17 -5 20
-35 16 -19 -2 -35 0 -35 5 0 4 17 7 38 5 36 -3 37 -4 37 -45z m189 12 c8 -19
20 -35 25 -35 6 0 11 -4 11 -10 0 -5 -7 -10 -15 -10 -8 0 -15 7 -15 15 0 8 -9
24 -20 35 -12 12 -18 25 -15 30 10 16 14 12 29 -25z m76 8 c0 -20 -3 -24 -9
-14 -7 11 -11 10 -20 -5 -13 -24 -14 -13 -1 20 13 34 30 33 30 -1z m383 17
c-31 -13 -29 -30 5 -31 l27 -2 -28 -4 c-23 -4 -28 -9 -24 -24 3 -10 1 -17 -4
-13 -13 8 -11 58 3 72 7 7 19 12 28 11 9 0 6 -4 -7 -9z m214 4 c-3 -3 -12 -4
-19 -1 -8 3 -5 6 6 6 11 1 17 -2 13 -5z m49 -9 c4 -8 3 -23 -2 -32 -4 -10 -6
-25 -5 -32 2 -13 0 -13 -14 -1 -15 13 -15 15 -1 26 21 15 20 41 -1 47 -17 4
-17 5 0 6 10 0 20 -6 23 -14z m223 1 c12 -15 5 -46 -11 -46 -6 0 -5 6 2 15 17
20 4 35 -32 35 -28 0 -30 -2 -25 -30 4 -16 2 -32 -3 -35 -11 -7 -14 58 -3 68
12 12 60 7 72 -7z m-1189 -40 c0 -3 -4 -8 -10 -11 -5 -3 -10 -1 -10 4 0 6 5
11 10 11 6 0 10 -2 10 -4z m490 -16 c-6 -11 -13 -20 -16 -20 -2 0 0 9 6 20 6
11 13 20 16 20 2 0 0 -9 -6 -20z m-661 -26 c10 -9 -35 -3 -49 6 -11 8 -7 9 15
4 17 -4 32 -8 34 -10z m904 -1 c-7 -2 -19 -2 -25 0 -7 3 -2 5 12 5 14 0 19 -2
13 -5z m-1220 -130 c-52 -10 -57 -78 -5 -86 25 -4 24 -4 -6 -6 -27 -1 -34 4
-43 25 -14 37 11 75 49 73 22 -1 23 -2 5 -6z m255 -5 c7 -7 12 -24 12 -38 0
-35 -17 -50 -57 -50 -22 0 -36 6 -43 20 -12 22 -4 60 14 72 17 12 61 9 74 -4z
m199 -25 l32 -38 1 33 c0 17 5 32 10 32 6 0 10 -20 10 -45 0 -56 -15 -58 -55
-7 l-30 37 -6 -35 c-6 -33 -6 -32 -8 13 0 26 2 47 7 47 4 0 21 -17 39 -37z
m278 26 c11 -17 -1 -21 -23 -8 -20 12 -52 7 -52 -9 0 -5 17 -13 38 -18 27 -7
37 -14 37 -29 0 -16 -8 -21 -42 -23 -24 -2 -43 1 -43 5 0 5 16 7 35 5 27 -3
35 -1 35 12 0 10 -9 16 -24 16 -34 0 -61 27 -45 46 13 16 75 19 84 3z m224
-75 c-6 -8 -24 -14 -40 -14 -31 0 -49 23 -49 64 0 40 18 30 22 -11 5 -67 66
-53 70 16 l1 36 4 -38 c3 -21 -1 -45 -8 -53z m389 75 c-13 -7 -18 -22 -18 -50
0 -24 -4 -38 -10 -34 -5 3 -10 24 -10 45 0 28 -5 40 -17 43 -10 3 2 5 27 6 35
0 41 -2 28 -10z m346 -24 c33 -43 44 -44 49 -2 3 24 4 21 5 -15 2 -58 -13 -62
-47 -13 -29 43 -39 44 -44 3 -3 -25 -4 -22 -5 15 -1 26 2 47 7 47 5 0 21 -16
35 -35z m246 22 c-30 -10 -35 -17 -35 -42 0 -26 3 -30 29 -30 35 0 47 24 17
32 -24 6 -29 23 -7 23 15 0 46 -26 46 -39 0 -28 -81 -44 -96 -20 -11 19 -6 71
8 80 7 5 27 9 43 8 l30 0 -35 -12z m-790 -79 c23 -6 23 -7 -5 -5 -28 2 -30 4
-31 47 l-2 45 7 -40 c5 -30 12 -41 31 -47z m360 42 c0 -22 -4 -40 -10 -40 -5
0 -10 18 -10 40 0 22 5 40 10 40 6 0 10 -18 10 -40z m-2860 -1671 c0 -14 -17
-10 -23 5 -4 10 -1 13 9 9 7 -3 14 -9 14 -14z"/>
<path d="M1776 1857 c-26 -19 -18 -61 12 -65 46 -7 72 47 33 68 -25 13 -24 13
-45 -3z"/>
</g>
</svg>
